<svg xmlns="http://www.w3.org/2000/svg" width="27.614" height="25.363" viewBox="0 0 27.614 25.363"><g transform="translate(0 0)"><path d="M27.445,23.714l-8.022-7.368a9.5,9.5,0,0,0,2.437-6.307C21.861,4.5,16.957,0,10.93,0S0,4.5,0,10.04s4.9,10.04,10.93,10.04A11.484,11.484,0,0,0,17.8,17.841l8.022,7.368a.612.612,0,0,0,.814,0l.813-.747A.5.5,0,0,0,27.445,23.714ZM10.93,17.966C6.172,17.966,2.3,14.41,2.3,10.04S6.172,2.114,10.93,2.114,19.56,5.669,19.56,10.04,15.689,17.966,10.93,17.966Z" transform="translate(0 0)"/></g></svg>